<?xml version="1.0" encoding="UTF-8"?>
<svg width="1440" height="900" viewBox="0 0 1440 900" fill="none" xmlns="http://www.w3.org/2000/svg">
  <!-- Background Gradients -->
  <g opacity="0.3">
    <rect width="1440" height="900" fill="url(#paint0_radial)"/>
    <rect width="1440" height="900" fill="url(#paint1_radial)"/>
    <rect width="1440" height="900" fill="url(#paint2_radial)"/>
  </g>
  
  <!-- Decorative Blobs -->
  <g opacity="0.3" filter="url(#filter0_f)">
    <circle cx="992.5" cy="190" r="103" fill="#4F46E5"/>
  </g>
  
  <g opacity="0.3" filter="url(#filter1_f)">
    <circle cx="300" cy="700" r="150" fill="#0EA5E9"/>
  </g>
  
  <g opacity="0.3" filter="url(#filter2_f)">
    <circle cx="1200" cy="600" r="120" fill="#8B5CF6"/>
  </g>
  
  <!-- Grid Pattern -->
  <g opacity="0.05">
    <path d="M0 0H1440V900H0V0Z" fill="url(#grid_pattern)" />
  </g>
  
  <!-- Floating Elements -->
  <g opacity="0.4">
    <!-- Code Brackets -->
    <g transform="translate(200, 200) rotate(15)">
      <path d="M0 0L20 20L0 40" stroke="#4F46E5" stroke-width="4" stroke-linecap="round" stroke-linejoin="round"/>
      <path d="M60 0L40 20L60 40" stroke="#4F46E5" stroke-width="4" stroke-linecap="round" stroke-linejoin="round"/>
    </g>
    
    <!-- React Symbol -->
    <g transform="translate(1200, 300)">
      <circle cx="0" cy="0" r="10" fill="#61DAFB"/>
      <ellipse cx="0" cy="0" rx="40" ry="15" stroke="#61DAFB" stroke-width="3" fill="none" transform="rotate(0 0 0)"/>
      <ellipse cx="0" cy="0" rx="40" ry="15" stroke="#61DAFB" stroke-width="3" fill="none" transform="rotate(60 0 0)"/>
      <ellipse cx="0" cy="0" rx="40" ry="15" stroke="#61DAFB" stroke-width="3" fill="none" transform="rotate(120 0 0)"/>
    </g>
    
    <!-- JavaScript Symbol -->
    <g transform="translate(300, 500)">
      <rect x="-25" y="-25" width="50" height="50" rx="5" fill="#F7DF1E"/>
      <path d="M-5 15C-5 5 0 5 5 5V15C5 20 0 20 -5 20" stroke="black" stroke-width="3" fill="none"/>
      <path d="M15 5V20" stroke="black" stroke-width="3" stroke-linecap="round"/>
      <path d="M10 12H20" stroke="black" stroke-width="3" stroke-linecap="round"/>
    </g>
    
    <!-- CSS Symbol -->
    <g transform="translate(1000, 700)">
      <path d="M-20 -25H20L15 15L0 25L-15 15L-20 -25Z" fill="#264DE4"/>
      <path d="M0 -15V15" stroke="white" stroke-width="2"/>
      <path d="M-10 -5H10" stroke="white" stroke-width="2"/>
      <path d="M-8 5H8" stroke="white" stroke-width="2"/>
    </g>
  </g>
  
  <!-- Definitions -->
  <defs>
    <!-- Radial Gradients -->
    <radialGradient id="paint0_radial" cx="0" cy="0" r="1" gradientUnits="userSpaceOnUse" gradientTransform="translate(720 450) rotate(90) scale(450 720)">
      <stop stop-color="#4F46E5" stop-opacity="0.2"/>
      <stop offset="1" stop-color="#4F46E5" stop-opacity="0"/>
    </radialGradient>
    
    <radialGradient id="paint1_radial" cx="0" cy="0" r="1" gradientUnits="userSpaceOnUse" gradientTransform="translate(720 450) rotate(90) scale(450 720)">
      <stop stop-color="#0EA5E9" stop-opacity="0.2"/>
      <stop offset="1" stop-color="#0EA5E9" stop-opacity="0"/>
    </radialGradient>
    
    <radialGradient id="paint2_radial" cx="0" cy="0" r="1" gradientUnits="userSpaceOnUse" gradientTransform="translate(720 450) rotate(90) scale(450 720)">
      <stop stop-color="#8B5CF6" stop-opacity="0.2"/>
      <stop offset="1" stop-color="#8B5CF6" stop-opacity="0"/>
    </radialGradient>
    
    <!-- Grid Pattern -->
    <pattern id="grid_pattern" patternUnits="userSpaceOnUse" width="40" height="40" patternTransform="scale(1) rotate(0)">
      <rect width="40" height="40" fill="none"/>
      <path d="M 40 0 L 0 0 0 40" stroke="currentColor" stroke-width="1" fill="none"/>
    </pattern>
    
    <!-- Filters -->
    <filter id="filter0_f" x="839.5" y="37" width="306" height="306" filterUnits="userSpaceOnUse" color-interpolation-filters="sRGB">
      <feFlood flood-opacity="0" result="BackgroundImageFix"/>
      <feBlend mode="normal" in="SourceGraphic" in2="BackgroundImageFix" result="shape"/>
      <feGaussianBlur stdDeviation="25" result="effect1_foregroundBlur"/>
    </filter>
    
    <filter id="filter1_f" x="100" y="500" width="400" height="400" filterUnits="userSpaceOnUse" color-interpolation-filters="sRGB">
      <feFlood flood-opacity="0" result="BackgroundImageFix"/>
      <feBlend mode="normal" in="SourceGraphic" in2="BackgroundImageFix" result="shape"/>
      <feGaussianBlur stdDeviation="25" result="effect1_foregroundBlur"/>
    </filter>
    
    <filter id="filter2_f" x="1030" y="430" width="340" height="340" filterUnits="userSpaceOnUse" color-interpolation-filters="sRGB">
      <feFlood flood-opacity="0" result="BackgroundImageFix"/>
      <feBlend mode="normal" in="SourceGraphic" in2="BackgroundImageFix" result="shape"/>
      <feGaussianBlur stdDeviation="25" result="effect1_foregroundBlur"/>
    </filter>
  </defs>
</svg>
