<?xml version="1.0" encoding="UTF-8"?>
<svg width="400" height="400" viewBox="0 0 400 400" fill="none" xmlns="http://www.w3.org/2000/svg">
  <defs>
    <!-- Modern gradients matching your design system -->
    <linearGradient id="avatarBg" x1="0%" y1="0%" x2="100%" y2="100%">
      <stop offset="0%" style="stop-color:#0ea5e9;stop-opacity:0.1" />
      <stop offset="50%" style="stop-color:#8b5cf6;stop-opacity:0.15" />
      <stop offset="100%" style="stop-color:#f97316;stop-opacity:0.1" />
    </linearGradient>
    
    <linearGradient id="hoodieGrad" x1="0%" y1="0%" x2="100%" y2="100%">
      <stop offset="0%" style="stop-color:#1e293b" />
      <stop offset="100%" style="stop-color:#0f172a" />
    </linearGradient>
    
    <linearGradient id="skinGrad" x1="0%" y1="0%" x2="100%" y2="100%">
      <stop offset="0%" style="stop-color:#fbbf24" />
      <stop offset="100%" style="stop-color:#f59e0b" />
    </linearGradient>
    
    <linearGradient id="glassGrad" x1="0%" y1="0%" x2="100%" y2="100%">
      <stop offset="0%" style="stop-color:#38bdf8;stop-opacity:0.8" />
      <stop offset="100%" style="stop-color:#0ea5e9;stop-opacity:0.9" />
    </linearGradient>
    
    <!-- Glow effects -->
    <filter id="glow" x="-50%" y="-50%" width="200%" height="200%">
      <feGaussianBlur stdDeviation="4" result="coloredBlur"/>
      <feMerge> 
        <feMergeNode in="coloredBlur"/>
        <feMergeNode in="SourceGraphic"/>
      </feMerge>
    </filter>
    
    <filter id="softShadow" x="-20%" y="-20%" width="140%" height="140%">
      <feDropShadow dx="2" dy="4" stdDeviation="3" flood-color="#000000" flood-opacity="0.2"/>
    </filter>
  </defs>
  
  <!-- Background circle -->
  <circle cx="200" cy="200" r="190" fill="url(#avatarBg)" filter="url(#glow)"/>
  
  <!-- Hoodie body -->
  <path d="M110 280 Q110 260 130 250 L130 240 Q130 220 150 210 L250 210 Q270 220 270 240 L270 250 Q290 260 290 280 L290 360 Q290 380 270 390 L130 390 Q110 380 110 360 Z" 
        fill="url(#hoodieGrad)" filter="url(#softShadow)"/>
  
  <!-- Hood -->
  <path d="M150 210 Q150 180 200 170 Q250 180 250 210 L250 220 Q230 200 200 200 Q170 200 150 220 Z" 
        fill="url(#hoodieGrad)" opacity="0.8"/>
  
  <!-- Hoodie strings -->
  <circle cx="185" cy="245" r="3" fill="#64748b"/>
  <circle cx="215" cy="245" r="3" fill="#64748b"/>
  <path d="M185 248 Q190 255 185 262" stroke="#64748b" stroke-width="2" fill="none"/>
  <path d="M215 248 Q210 255 215 262" stroke="#64748b" stroke-width="2" fill="none"/>
  
  <!-- Head -->
  <ellipse cx="200" cy="170" rx="50" ry="55" fill="url(#skinGrad)" filter="url(#softShadow)"/>
  
  <!-- Hair (modern style) -->
  <path d="M150 140 Q150 115 175 105 Q200 100 225 105 Q250 115 250 140 Q250 155 245 165 L155 165 Q150 155 150 140 Z" 
        fill="#374151" filter="url(#softShadow)"/>
  
  <!-- Hair details -->
  <path d="M160 130 Q180 125 200 130 Q220 125 240 130" stroke="#4b5563" stroke-width="2" fill="none" opacity="0.6"/>
  
  <!-- Glasses (modern tech style) -->
  <g filter="url(#glow)">
    <!-- Left lens -->
    <rect x="160" y="140" width="30" height="20" rx="10" fill="none" stroke="url(#glassGrad)" stroke-width="3"/>
    <!-- Right lens -->
    <rect x="210" y="140" width="30" height="20" rx="10" fill="none" stroke="url(#glassGrad)" stroke-width="3"/>
    <!-- Bridge -->
    <path d="M190 150 L210 150" stroke="url(#glassGrad)" stroke-width="3"/>
    <!-- Left temple -->
    <path d="M160 150 Q150 150 145 155" stroke="url(#glassGrad)" stroke-width="3" fill="none"/>
    <!-- Right temple -->
    <path d="M240 150 Q250 150 255 155" stroke="url(#glassGrad)" stroke-width="3" fill="none"/>
    
    <!-- Lens reflections -->
    <rect x="165" y="143" width="8" height="4" rx="2" fill="#38bdf8" opacity="0.7"/>
    <rect x="215" y="143" width="8" height="4" rx="2" fill="#38bdf8" opacity="0.7"/>
  </g>
  
  <!-- Eyes -->
  <ellipse cx="175" cy="155" rx="4" ry="5" fill="#1f2937"/>
  <ellipse cx="225" cy="155" rx="4" ry="5" fill="#1f2937"/>
  <circle cx="176" cy="153" r="1" fill="#ffffff"/>
  <circle cx="226" cy="153" r="1" fill="#ffffff"/>
  
  <!-- Eyebrows -->
  <path d="M165 140 Q175 135 185 140" stroke="#374151" stroke-width="2" stroke-linecap="round"/>
  <path d="M215 140 Q225 135 235 140" stroke="#374151" stroke-width="2" stroke-linecap="round"/>
  
  <!-- Nose -->
  <ellipse cx="200" cy="165" rx="3" ry="6" fill="#f59e0b" opacity="0.3"/>
  
  <!-- Mouth (slight smile) -->
  <path d="M190 180 Q200 185 210 180" stroke="#374151" stroke-width="2" fill="none" stroke-linecap="round"/>
  
  <!-- Floating code elements -->
  <g opacity="0.6" filter="url(#glow)">
    <!-- Code symbols -->
    <text x="70" y="130" font-family="monospace" font-size="20" fill="#38bdf8" transform="rotate(-15 70 130)">{ }</text>
    <text x="310" y="150" font-family="monospace" font-size="18" fill="#a78bfa" transform="rotate(20 310 150)">&lt;/&gt;</text>
    <text x="80" y="290" font-family="monospace" font-size="16" fill="#f97316" transform="rotate(-10 80 290)">( )</text>
    <text x="320" y="270" font-family="monospace" font-size="20" fill="#0ea5e9" transform="rotate(15 320 270)">[ ]</text>
    
    <!-- Tech stack icons -->
    <circle cx="60" cy="200" r="6" fill="#38bdf8" opacity="0.8"/>
    <rect x="325" y="195" width="10" height="10" fill="#a78bfa" opacity="0.8" transform="rotate(45 330 200)"/>
    <polygon points="75,330 85,310 95,330" fill="#f97316" opacity="0.8"/>
    <polygon points="340,310 350,320 340,330 330,320" fill="#0ea5e9" opacity="0.8"/>
  </g>
  
  <!-- Animated elements -->
  <g opacity="0.4">
    <!-- Floating particles -->
    <circle cx="120" cy="110" r="2" fill="#38bdf8">
      <animate attributeName="cy" values="110;100;110" dur="3s" repeatCount="indefinite"/>
      <animate attributeName="opacity" values="0.4;0.8;0.4" dur="3s" repeatCount="indefinite"/>
    </circle>
    <circle cx="290" cy="180" r="2" fill="#a78bfa">
      <animate attributeName="cy" values="180;170;180" dur="4s" repeatCount="indefinite"/>
      <animate attributeName="opacity" values="0.4;0.8;0.4" dur="4s" repeatCount="indefinite"/>
    </circle>
    <circle cx="100" cy="320" r="2" fill="#f97316">
      <animate attributeName="cy" values="320;310;320" dur="5s" repeatCount="indefinite"/>
      <animate attributeName="opacity" values="0.4;0.8;0.4" dur="5s" repeatCount="indefinite"/>
    </circle>
  </g>
  
  <!-- Subtle border -->
  <circle cx="200" cy="200" r="188" fill="none" stroke="url(#glassGrad)" stroke-width="2" opacity="0.3"/>
</svg>
