<?xml version="1.0" encoding="UTF-8"?>
<svg width="1440" height="900" viewBox="0 0 1440 900" fill="none" xmlns="http://www.w3.org/2000/svg">
  <g opacity="0.2">
    <path d="M1440 0H0V900H1440V0Z" fill="url(#paint0_radial_1_2)"/>
    <path d="M1440 0H0V900H1440V0Z" fill="url(#paint1_radial_1_2)"/>
    <path d="M1440 0H0V900H1440V0Z" fill="url(#paint2_radial_1_2)"/>
  </g>
  
  <!-- Floating Shapes -->
  <g opacity="0.3">
    <circle cx="200" cy="200" r="80" fill="url(#paint3_linear_1_2)" opacity="0.2"/>
    <circle cx="1200" cy="300" r="100" fill="url(#paint4_linear_1_2)" opacity="0.2"/>
    <circle cx="400" cy="700" r="120" fill="url(#paint5_linear_1_2)" opacity="0.2"/>
    <circle cx="1000" cy="600" r="90" fill="url(#paint6_linear_1_2)" opacity="0.2"/>
    
    <!-- Small dots -->
    <circle cx="300" cy="300" r="5" fill="#4F46E5" opacity="0.5"/>
    <circle cx="320" cy="320" r="3" fill="#4F46E5" opacity="0.5"/>
    <circle cx="340" cy="290" r="4" fill="#4F46E5" opacity="0.5"/>
    
    <circle cx="900" cy="200" r="5" fill="#0EA5E9" opacity="0.5"/>
    <circle cx="920" cy="220" r="3" fill="#0EA5E9" opacity="0.5"/>
    <circle cx="940" cy="190" r="4" fill="#0EA5E9" opacity="0.5"/>
    
    <circle cx="500" cy="600" r="5" fill="#8B5CF6" opacity="0.5"/>
    <circle cx="520" cy="620" r="3" fill="#8B5CF6" opacity="0.5"/>
    <circle cx="540" cy="590" r="4" fill="#8B5CF6" opacity="0.5"/>
    
    <circle cx="1100" cy="500" r="5" fill="#4F46E5" opacity="0.5"/>
    <circle cx="1120" cy="520" r="3" fill="#4F46E5" opacity="0.5"/>
    <circle cx="1140" cy="490" r="4" fill="#4F46E5" opacity="0.5"/>
  </g>
  
  <!-- Grid Pattern -->
  <g opacity="0.05">
    <path d="M0 100H1440" stroke="white" stroke-width="1"/>
    <path d="M0 200H1440" stroke="white" stroke-width="1"/>
    <path d="M0 300H1440" stroke="white" stroke-width="1"/>
    <path d="M0 400H1440" stroke="white" stroke-width="1"/>
    <path d="M0 500H1440" stroke="white" stroke-width="1"/>
    <path d="M0 600H1440" stroke="white" stroke-width="1"/>
    <path d="M0 700H1440" stroke="white" stroke-width="1"/>
    <path d="M0 800H1440" stroke="white" stroke-width="1"/>
    
    <path d="M100 0V900" stroke="white" stroke-width="1"/>
    <path d="M200 0V900" stroke="white" stroke-width="1"/>
    <path d="M300 0V900" stroke="white" stroke-width="1"/>
    <path d="M400 0V900" stroke="white" stroke-width="1"/>
    <path d="M500 0V900" stroke="white" stroke-width="1"/>
    <path d="M600 0V900" stroke="white" stroke-width="1"/>
    <path d="M700 0V900" stroke="white" stroke-width="1"/>
    <path d="M800 0V900" stroke="white" stroke-width="1"/>
    <path d="M900 0V900" stroke="white" stroke-width="1"/>
    <path d="M1000 0V900" stroke="white" stroke-width="1"/>
    <path d="M1100 0V900" stroke="white" stroke-width="1"/>
    <path d="M1200 0V900" stroke="white" stroke-width="1"/>
    <path d="M1300 0V900" stroke="white" stroke-width="1"/>
    <path d="M1400 0V900" stroke="white" stroke-width="1"/>
  </g>
  
  <defs>
    <radialGradient id="paint0_radial_1_2" cx="0" cy="0" r="1" gradientUnits="userSpaceOnUse" gradientTransform="translate(720 450) rotate(90) scale(450 720)">
      <stop stop-color="#4F46E5" stop-opacity="0.1"/>
      <stop offset="1" stop-color="#4F46E5" stop-opacity="0"/>
    </radialGradient>
    <radialGradient id="paint1_radial_1_2" cx="0" cy="0" r="1" gradientUnits="userSpaceOnUse" gradientTransform="translate(720 450) rotate(90) scale(450 720)">
      <stop stop-color="#0EA5E9" stop-opacity="0.1"/>
      <stop offset="1" stop-color="#0EA5E9" stop-opacity="0"/>
    </radialGradient>
    <radialGradient id="paint2_radial_1_2" cx="0" cy="0" r="1" gradientUnits="userSpaceOnUse" gradientTransform="translate(720 450) rotate(90) scale(450 720)">
      <stop stop-color="#8B5CF6" stop-opacity="0.1"/>
      <stop offset="1" stop-color="#8B5CF6" stop-opacity="0"/>
    </radialGradient>
    
    <linearGradient id="paint3_linear_1_2" x1="200" y1="120" x2="200" y2="280" gradientUnits="userSpaceOnUse">
      <stop stop-color="#4F46E5"/>
      <stop offset="1" stop-color="#4F46E5" stop-opacity="0"/>
    </linearGradient>
    <linearGradient id="paint4_linear_1_2" x1="1200" y1="200" x2="1200" y2="400" gradientUnits="userSpaceOnUse">
      <stop stop-color="#0EA5E9"/>
      <stop offset="1" stop-color="#0EA5E9" stop-opacity="0"/>
    </linearGradient>
    <linearGradient id="paint5_linear_1_2" x1="400" y1="580" x2="400" y2="820" gradientUnits="userSpaceOnUse">
      <stop stop-color="#8B5CF6"/>
      <stop offset="1" stop-color="#8B5CF6" stop-opacity="0"/>
    </linearGradient>
    <linearGradient id="paint6_linear_1_2" x1="1000" y1="510" x2="1000" y2="690" gradientUnits="userSpaceOnUse">
      <stop stop-color="#4F46E5"/>
      <stop offset="1" stop-color="#4F46E5" stop-opacity="0"/>
    </linearGradient>
  </defs>
</svg>
