<?xml version="1.0" encoding="UTF-8"?>
<svg width="1440" height="900" viewBox="0 0 1440 900" fill="none" xmlns="http://www.w3.org/2000/svg">
  <g opacity="0.2">
    <path d="M1440 0H0V900H1440V0Z" fill="url(#paint0_radial_1_2)"/>
    <path d="M1440 0H0V900H1440V0Z" fill="url(#paint1_radial_1_2)"/>
    <path d="M1440 0H0V900H1440V0Z" fill="url(#paint2_radial_1_2)"/>
  </g>
  
  <!-- Floating Shapes -->
  <g opacity="0.1">
    <circle cx="200" cy="200" r="100" fill="url(#paint3_linear_1_2)"/>
    <circle cx="1200" cy="300" r="150" fill="url(#paint4_linear_1_2)"/>
    <circle cx="400" cy="700" r="120" fill="url(#paint5_linear_1_2)"/>
    <circle cx="1000" cy="600" r="80" fill="url(#paint6_linear_1_2)"/>
  </g>
  
  <!-- Envelope Pattern -->
  <g opacity="0.05">
    <path d="M100 100 L150 150 L100 200 Z" stroke="white" stroke-width="2"/>
    <path d="M300 200 L350 250 L300 300 Z" stroke="white" stroke-width="2"/>
    <path d="M500 100 L550 150 L500 200 Z" stroke="white" stroke-width="2"/>
    <path d="M700 300 L750 350 L700 400 Z" stroke="white" stroke-width="2"/>
    <path d="M900 200 L950 250 L900 300 Z" stroke="white" stroke-width="2"/>
    <path d="M1100 400 L1150 450 L1100 500 Z" stroke="white" stroke-width="2"/>
    <path d="M1300 300 L1350 350 L1300 400 Z" stroke="white" stroke-width="2"/>
    
    <path d="M200 500 L250 550 L200 600 Z" stroke="white" stroke-width="2"/>
    <path d="M400 600 L450 650 L400 700 Z" stroke="white" stroke-width="2"/>
    <path d="M600 500 L650 550 L600 600 Z" stroke="white" stroke-width="2"/>
    <path d="M800 700 L850 750 L800 800 Z" stroke="white" stroke-width="2"/>
    <path d="M1000 500 L1050 550 L1000 600 Z" stroke="white" stroke-width="2"/>
    <path d="M1200 600 L1250 650 L1200 700 Z" stroke="white" stroke-width="2"/>
  </g>
  
  <!-- Connection Lines -->
  <g opacity="0.05">
    <line x1="200" y1="200" x2="400" y2="300" stroke="white" stroke-width="1"/>
    <line x1="400" y1="300" x2="600" y2="200" stroke="white" stroke-width="1"/>
    <line x1="600" y1="200" x2="800" y2="300" stroke="white" stroke-width="1"/>
    <line x1="800" y1="300" x2="1000" y2="200" stroke="white" stroke-width="1"/>
    <line x1="1000" y1="200" x2="1200" y2="300" stroke="white" stroke-width="1"/>
    
    <line x1="300" y1="500" x2="500" y2="600" stroke="white" stroke-width="1"/>
    <line x1="500" y1="600" x2="700" y2="500" stroke="white" stroke-width="1"/>
    <line x1="700" y1="500" x2="900" y2="600" stroke="white" stroke-width="1"/>
    <line x1="900" y1="600" x2="1100" y2="500" stroke="white" stroke-width="1"/>
  </g>
  
  <defs>
    <radialGradient id="paint0_radial_1_2" cx="0" cy="0" r="1" gradientUnits="userSpaceOnUse" gradientTransform="translate(720 450) rotate(90) scale(450 720)">
      <stop stop-color="#4F46E5" stop-opacity="0.1"/>
      <stop offset="1" stop-color="#4F46E5" stop-opacity="0"/>
    </radialGradient>
    <radialGradient id="paint1_radial_1_2" cx="0" cy="0" r="1" gradientUnits="userSpaceOnUse" gradientTransform="translate(720 450) rotate(90) scale(450 720)">
      <stop stop-color="#0EA5E9" stop-opacity="0.1"/>
      <stop offset="1" stop-color="#0EA5E9" stop-opacity="0"/>
    </radialGradient>
    <radialGradient id="paint2_radial_1_2" cx="0" cy="0" r="1" gradientUnits="userSpaceOnUse" gradientTransform="translate(720 450) rotate(90) scale(450 720)">
      <stop stop-color="#8B5CF6" stop-opacity="0.1"/>
      <stop offset="1" stop-color="#8B5CF6" stop-opacity="0"/>
    </radialGradient>
    
    <linearGradient id="paint3_linear_1_2" x1="200" y1="100" x2="200" y2="300" gradientUnits="userSpaceOnUse">
      <stop stop-color="#4F46E5"/>
      <stop offset="1" stop-color="#4F46E5" stop-opacity="0"/>
    </linearGradient>
    <linearGradient id="paint4_linear_1_2" x1="1200" y1="150" x2="1200" y2="450" gradientUnits="userSpaceOnUse">
      <stop stop-color="#0EA5E9"/>
      <stop offset="1" stop-color="#0EA5E9" stop-opacity="0"/>
    </linearGradient>
    <linearGradient id="paint5_linear_1_2" x1="400" y1="580" x2="400" y2="820" gradientUnits="userSpaceOnUse">
      <stop stop-color="#8B5CF6"/>
      <stop offset="1" stop-color="#8B5CF6" stop-opacity="0"/>
    </linearGradient>
    <linearGradient id="paint6_linear_1_2" x1="1000" y1="520" x2="1000" y2="680" gradientUnits="userSpaceOnUse">
      <stop stop-color="#4F46E5"/>
      <stop offset="1" stop-color="#4F46E5" stop-opacity="0"/>
    </linearGradient>
  </defs>
</svg>
