<?xml version="1.0" encoding="UTF-8"?>
<svg width="800" height="500" viewBox="0 0 800 500" fill="none" xmlns="http://www.w3.org/2000/svg">
  <!-- Background -->
  <rect width="800" height="500" rx="10" fill="#1E293B"/>
  
  <!-- Phone Frame -->
  <rect x="300" y="50" width="200" height="400" rx="20" fill="#0F172A"/>
  <rect x="310" y="60" width="180" height="380" rx="15" fill="#1E293B"/>
  
  <!-- Status Bar -->
  <rect x="310" y="60" width="180" height="30" rx="15" fill="#0F172A"/>
  <circle cx="330" cy="75" r="5" fill="#FFFFFF"/>
  <rect x="430" y="70" width="40" height="10" rx="5" fill="#FFFFFF"/>
  
  <!-- App Header -->
  <rect x="310" y="90" width="180" height="50" rx="4" fill="#334155"/>
  <rect x="330" y="105" width="80" height="20" rx="4" fill="#FFFFFF"/>
  <circle cx="470" cy="115" r="15" fill="#10B981"/>
  
  <!-- Fitness Stats -->
  <rect x="320" y="150" width="160" height="80" rx="8" fill="#334155"/>
  <rect x="330" y="160" width="60" height="15" rx="2" fill="#94A3B8"/>
  <text x="330" y="195" font-family="Arial" font-size="24" fill="#FFFFFF">8,547</text>
  <rect x="330" y="205" width="40" height="15" rx="2" fill="#10B981"/>
  
  <!-- Progress Circle -->
  <circle cx="400" cy="280" r="40" stroke="#334155" stroke-width="8"/>
  <path d="M400 240 A40 40 0 1 1 360 280" stroke="#10B981" stroke-width="8" stroke-linecap="round"/>
  <text x="385" y="290" font-family="Arial" font-size="24" fill="#FFFFFF">75%</text>
  
  <!-- Activity Bars -->
  <rect x="330" y="340" width="140" height="15" rx="2" fill="#334155"/>
  <rect x="330" y="340" width="105" height="15" rx="2" fill="#4F46E5"/>
  
  <rect x="330" y="365" width="140" height="15" rx="2" fill="#334155"/>
  <rect x="330" y="365" width="70" height="15" rx="2" fill="#0EA5E9"/>
  
  <rect x="330" y="390" width="140" height="15" rx="2" fill="#334155"/>
  <rect x="330" y="390" width="120" height="15" rx="2" fill="#8B5CF6"/>
  
  <!-- Navigation Bar -->
  <rect x="310" y="410" width="180" height="30" rx="4" fill="#0F172A"/>
  <rect x="330" y="420" width="20" height="10" rx="2" fill="#FFFFFF"/>
  <rect x="380" y="420" width="20" height="10" rx="2" fill="#94A3B8"/>
  <rect x="430" y="420" width="20" height="10" rx="2" fill="#94A3B8"/>
  <rect x="480" y="420" width="20" height="10" rx="2" fill="#94A3B8"/>
  
  <!-- Decorative Phone Elements -->
  <rect x="390" y="70" width="20" height="5" rx="2.5" fill="#0F172A"/>
  <circle cx="400" cy="430" r="10" stroke="#334155" stroke-width="2"/>
  
  <!-- Decorative Charts -->
  <path d="M150 150 L150 350 L650 350" stroke="#334155" stroke-width="2"/>
  <path d="M200 300 L250 250 L300 320 L350 200 L400 280 L450 220 L500 300 L550 180 L600 250" stroke="#10B981" stroke-width="3" fill="none" stroke-linecap="round" stroke-linejoin="round"/>
  
  <circle cx="200" cy="300" r="5" fill="#10B981"/>
  <circle cx="250" cy="250" r="5" fill="#10B981"/>
  <circle cx="300" cy="320" r="5" fill="#10B981"/>
  <circle cx="350" cy="200" r="5" fill="#10B981"/>
  <circle cx="400" cy="280" r="5" fill="#10B981"/>
  <circle cx="450" cy="220" r="5" fill="#10B981"/>
  <circle cx="500" cy="300" r="5" fill="#10B981"/>
  <circle cx="550" cy="180" r="5" fill="#10B981"/>
  <circle cx="600" cy="250" r="5" fill="#10B981"/>
  
  <!-- Decorative Elements -->
  <circle cx="200" cy="150" r="30" fill="#4F46E5" opacity="0.1"/>
  <circle cx="600" cy="150" r="30" fill="#0EA5E9" opacity="0.1"/>
  <circle cx="200" cy="350" r="30" fill="#8B5CF6" opacity="0.1"/>
  <circle cx="600" cy="350" r="30" fill="#10B981" opacity="0.1"/>
</svg>
