<?xml version="1.0" encoding="UTF-8"?>
<svg width="800" height="500" viewBox="0 0 800 500" fill="none" xmlns="http://www.w3.org/2000/svg">
  <!-- Background -->
  <rect width="800" height="500" rx="10" fill="#1E293B"/>
  
  <!-- Browser Window -->
  <rect x="100" y="50" width="600" height="400" rx="8" fill="#0F172A"/>
  <rect x="100" y="50" width="600" height="30" rx="8" fill="#334155"/>
  
  <!-- Browser Controls -->
  <circle cx="120" cy="65" r="5" fill="#EF4444"/>
  <circle cx="140" cy="65" r="5" fill="#F59E0B"/>
  <circle cx="160" cy="65" r="5" fill="#10B981"/>
  
  <!-- URL Bar -->
  <rect x="180" y="55" width="400" height="20" rx="4" fill="#1E293B"/>
  
  <!-- Portfolio Website -->
  <!-- Header -->
  <rect x="120" y="100" width="560" height="60" rx="4" fill="#1E293B"/>
  <rect x="140" y="120" width="100" height="20" rx="4" fill="#FFFFFF"/>
  <rect x="500" y="120" width="40" height="20" rx="4" fill="#94A3B8"/>
  <rect x="550" y="120" width="40" height="20" rx="4" fill="#94A3B8"/>
  <rect x="600" y="120" width="60" height="20" rx="4" fill="#4F46E5"/>
  
  <!-- Hero Section -->
  <rect x="120" y="180" width="560" height="120" rx="4" fill="#334155"/>
  <rect x="140" y="200" width="250" height="30" rx="4" fill="#FFFFFF"/>
  <rect x="140" y="240" width="200" height="15" rx="2" fill="#94A3B8"/>
  <rect x="140" y="265" width="200" height="15" rx="2" fill="#94A3B8"/>
  <rect x="450" y="200" width="80" height="80" rx="40" fill="#4F46E5"/>
  
  <!-- Projects Section -->
  <rect x="120" y="320" width="560" height="30" rx="4" fill="#FFFFFF"/>
  
  <!-- Project Cards -->
  <rect x="120" y="360" width="175" height="80" rx="4" fill="#1E293B"/>
  <rect x="130" y="370" width="155" height="40" rx="4" fill="#334155"/>
  <rect x="130" y="420" width="100" height="10" rx="2" fill="#FFFFFF"/>
  
  <rect x="310" y="360" width="175" height="80" rx="4" fill="#1E293B"/>
  <rect x="320" y="370" width="155" height="40" rx="4" fill="#334155"/>
  <rect x="320" y="420" width="100" height="10" rx="2" fill="#FFFFFF"/>
  
  <rect x="500" y="360" width="175" height="80" rx="4" fill="#1E293B"/>
  <rect x="510" y="370" width="155" height="40" rx="4" fill="#334155"/>
  <rect x="510" y="420" width="100" height="10" rx="2" fill="#FFFFFF"/>
  
  <!-- Decorative Elements -->
  <circle cx="400" cy="150" r="100" fill="#4F46E5" opacity="0.05"/>
  <circle cx="200" cy="400" r="80" fill="#0EA5E9" opacity="0.05"/>
  <circle cx="600" cy="300" r="60" fill="#8B5CF6" opacity="0.05"/>
  
  <!-- Gradient Overlay -->
  <rect width="800" height="500" rx="10" fill="url(#paint0_radial)" fill-opacity="0.1"/>
  
  <defs>
    <radialGradient id="paint0_radial" cx="0" cy="0" r="1" gradientUnits="userSpaceOnUse" gradientTransform="translate(400 250) rotate(90) scale(250 400)">
      <stop stop-color="#4F46E5"/>
      <stop offset="1" stop-color="#4F46E5" stop-opacity="0"/>
    </radialGradient>
  </defs>
</svg>
