<?xml version="1.0" encoding="UTF-8"?>
<svg width="800" height="500" viewBox="0 0 800 500" fill="none" xmlns="http://www.w3.org/2000/svg">
  <!-- Background -->
  <rect width="800" height="500" rx="10" fill="#1E293B"/>
  
  <!-- App Window -->
  <rect x="100" y="50" width="600" height="400" rx="8" fill="#0F172A"/>
  
  <!-- Sidebar -->
  <rect x="100" y="50" width="150" height="400" rx="8" fill="#1E293B"/>
  
  <!-- Sidebar Menu Items -->
  <rect x="120" y="80" width="110" height="30" rx="4" fill="#334155"/>
  <rect x="130" y="90" width="70" height="10" rx="2" fill="#64748B"/>
  
  <rect x="120" y="120" width="110" height="30" rx="4" fill="#4F46E5"/>
  <rect x="130" y="130" width="70" height="10" rx="2" fill="#FFFFFF"/>
  
  <rect x="120" y="160" width="110" height="30" rx="4" fill="#334155"/>
  <rect x="130" y="170" width="70" height="10" rx="2" fill="#64748B"/>
  
  <rect x="120" y="200" width="110" height="30" rx="4" fill="#334155"/>
  <rect x="130" y="210" width="70" height="10" rx="2" fill="#64748B"/>
  
  <!-- Main Content -->
  <rect x="270" y="80" width="410" height="50" rx="4" fill="#1E293B"/>
  <rect x="290" y="95" width="200" height="20" rx="4" fill="#FFFFFF"/>
  <rect x="600" y="95" width="60" height="20" rx="4" fill="#4F46E5"/>
  
  <!-- Task Cards -->
  <!-- Task 1 -->
  <rect x="270" y="150" width="200" height="100" rx="4" fill="#1E293B"/>
  <rect x="290" y="170" width="160" height="10" rx="2" fill="#FFFFFF"/>
  <rect x="290" y="190" width="120" height="10" rx="2" fill="#64748B"/>
  <rect x="290" y="220" width="60" height="20" rx="4" fill="#4F46E5"/>
  
  <!-- Task 2 -->
  <rect x="480" y="150" width="200" height="100" rx="4" fill="#1E293B"/>
  <rect x="500" y="170" width="160" height="10" rx="2" fill="#FFFFFF"/>
  <rect x="500" y="190" width="120" height="10" rx="2" fill="#64748B"/>
  <rect x="500" y="220" width="60" height="20" rx="4" fill="#10B981"/>
  
  <!-- Task 3 -->
  <rect x="270" y="270" width="200" height="100" rx="4" fill="#1E293B"/>
  <rect x="290" y="290" width="160" height="10" rx="2" fill="#FFFFFF"/>
  <rect x="290" y="310" width="120" height="10" rx="2" fill="#64748B"/>
  <rect x="290" y="340" width="60" height="20" rx="4" fill="#F59E0B"/>
  
  <!-- Task 4 -->
  <rect x="480" y="270" width="200" height="100" rx="4" fill="#1E293B"/>
  <rect x="500" y="290" width="160" height="10" rx="2" fill="#FFFFFF"/>
  <rect x="500" y="310" width="120" height="10" rx="2" fill="#64748B"/>
  <rect x="500" y="340" width="60" height="20" rx="4" fill="#EF4444"/>
  
  <!-- Decorative Elements -->
  <circle cx="150" cy="400" r="30" fill="#4F46E5" opacity="0.1"/>
  <circle cx="600" cy="100" r="20" fill="#0EA5E9" opacity="0.1"/>
  <circle cx="400" cy="350" r="40" fill="#8B5CF6" opacity="0.1"/>
</svg>
