<?xml version="1.0" encoding="UTF-8"?>
<svg xmlns="http://www.w3.org/2000/svg" viewBox="0 0 512 512">
  <path fill="#264DE4" d="M71.357,460.819L30.272,0h451.456l-41.129,460.746L255.724,512"/>
  <path fill="#2965F1" d="M405.388,431.408l35.148-393.73H256v435.146"/>
  <path fill="#EBEBEB" d="M124.46,208.59l5.065,56.517H256V208.59M119.419,150.715H256V94.197H114.281M130.502,316.892l5.056,56.466L256,402.693v-60.343l-114.764-25.458"/>
  <path fill="#FFFFFF" d="M255.805,208.59v56.517h68.375l-6.44,71.839l-61.935,16.695v60.343l113.924-31.528l.84-9.426l13.064-146.388l1.359-14.963h-14.191H255.805M255.805,94.197v56.518h133.02l1.103-12.382l2.51-27.967l1.318-16.169H255.805"/>
</svg>
