<?xml version="1.0" encoding="UTF-8"?>
<svg xmlns="http://www.w3.org/2000/svg" viewBox="0 0 512 512">
  <rect width="512" height="512" fill="#F7DF1E"/>
  <path d="M324.177,393.511c11.9,19.441,27.378,33.732,54.753,33.732c23.012,0,37.69-11.514,37.69-27.378c0-19.053-15.089-25.819-40.52-36.947l-13.911-5.969c-40.133-17.146-66.726-38.657-66.726-84.066c0-41.874,31.879-73.754,81.719-73.754c35.517,0,61.045,12.36,79.467,44.627l-43.466,27.961c-9.554-17.146-19.83-23.883-35.998-23.883c-16.361,0-26.796,10.354-26.796,23.883c0,16.747,10.354,23.496,34.334,33.927l13.911,5.969c47.287,20.315,73.948,41.099,73.948,87.673c0,50.234-39.492,77.805-92.6,77.805c-51.879,0-85.42-24.754-101.768-57.214L324.177,393.511z M179.065,398.12c8.781,15.476,16.747,28.54,35.998,28.54c18.377,0,29.891-7.201,29.891-35.13V235.142h55.599v157.164c0,57.601-33.732,83.809-82.88,83.809c-44.434,0-70.14-22.988-83.228-50.621L179.065,398.12z"/>
</svg>
