<?xml version="1.0" encoding="UTF-8"?>
<svg xmlns="http://www.w3.org/2000/svg" viewBox="0 0 512 512">
  <path fill="#539E43" d="M256,512c-7.3,0-14.3-2-20.6-5.3l-65.3-38.6c-9.6-5.3-5-7.3-1.6-8.3c13-4.6,15.6-5.6,29.6-13.3
    c1.6-0.6,3.6-0.3,5,0.6l50,30c2,1,4.6,1,6.3,0l195.3-112.6c2-1,3.3-3.3,3.3-5.6V152.3c0-2.3-1.3-4.6-3.3-5.6L260.3,34
    c-2-1-4.6-1-6.3,0L58.6,146.6c-2,1-3.3,3.6-3.3,5.6v225.3c0,2.3,1.3,4.6,3.3,5.6l53.6,31c29,14.6,47-2.6,47-19.6V172
    c0-3.3,2.6-5.6,5.6-5.6h25c3,0,5.6,2.3,5.6,5.6v197.6c0,38.6-21,61-57.3,61c-11.3,0-20,0-44.6-12l-51-29.3
    c-12.6-7.3-20.6-21-20.6-35.6V152.3c0-14.6,8-28.3,20.6-35.6L235.3,4c12.3-7,29-7,41.3,0l195.3,112.6
    c12.6,7.3,20.6,21,20.6,35.6v225.3c0,14.6-8,28.3-20.6,35.6L276.6,506.6C270.3,510,263.3,512,256,512z M301,339.3
    c-85.6,0-103.3-39.3-103.3-72.3c0-3.3,2.6-5.6,5.6-5.6h25.3c2.6,0,5,2,5.3,4.6c3.6,24.6,14.6,37,67,37c41.3,0,59-9.3,59-31.3
    c0-12.6-5-22-69-28.3c-53.6-5.3-86.6-17-86.6-60c0-39.6,33.3-63.3,89.3-63.3c63,0,94,22,98,69c0,1.6-0.3,3-1.6,4.3
    c-1,1-2.6,2-4,2h-25.6c-2.3,0-4.6-1.6-5-4c-5.6-25-19.3-33.3-61.6-33.3c-45.3,0-50.6,15.6-50.6,27.6c0,14.3,6.3,18.6,67,26.6
    c60,8,88.6,19.3,88.6,61.3C399.6,314.3,364,339.3,301,339.3z"/>
</svg>
