<?xml version="1.0" encoding="UTF-8"?>
<svg xmlns="http://www.w3.org/2000/svg" viewBox="0 0 512 512">
  <path fill="#61DAFB" d="M418.2,129.8c-4.6-1.5-9.4-2.9-14.2-4.2,0.8-3.2,1.5-6.4,2.2-9.5,10.5-51.4,3.6-92.7-20-106.1
    c-22.7-12.9-59.8,0.5-97.3,32.9c-3.8,3.3-7.5,6.7-11.2,10.2c-2.5-2.4-5-4.7-7.5-6.9c-39.3-35-78.7-49.6-102.5-36.1
    c-22.8,13-29.5,51.6-19.9,99.8c1,4.8,2.1,9.6,3.3,14.3c-5.6,1.6-11.1,3.3-16.3,5.2c-46.5,16.3-76.2,41.8-76.2,68.2
    c0,27.3,31.9,54.8,80.4,71.5c3.8,1.3,7.7,2.5,11.7,3.7c-1.3,5.1-2.4,10.2-3.4,15.4c-9.1,47.3-2,84.8,20.7,97.8
    c23.4,13.3,62.6-0.4,100.9-33.5c3-2.6,6-5.3,9-8.1c3.8,3.7,7.7,7.2,11.7,10.5c37.2,32.1,74,45,96.7,32.1
    c23.4-13.3,31-53.7,21.1-102.9c-0.7-3.8-1.6-7.6-2.5-11.5c2.7-0.8,5.4-1.6,8-2.5c50.2-16.7,82.5-43.7,82.5-71.3
    C496,171.9,465.1,146.1,418.2,129.8z M282.3,64.9c32.1-28,62.1-38.8,75.7-31.1c14.5,8.2,20.1,41.5,11,85.3
    c-0.6,2.9-1.2,5.8-1.9,8.6c-18.2-4.2-37.9-7.3-58.7-9.2c-12.1-17.2-24.7-32.9-37.6-46.7C274.4,71.3,278.4,68.1,282.3,64.9z
     M157.4,278.6c4.1,7.9,8.4,15.8,12.9,23.5c-12.8-1.3-25.3-3.1-37.3-5.4c3.5-11.4,7.8-23.2,12.7-35.1
    C149.5,267.3,153.4,273,157.4,278.6z M157.4,233.4c-3.9,5.6-7.7,11.3-11.4,17.1c-4.9-11.7-9-23.4-12.4-34.7
    c11.8-2.7,24.2-4.8,37-6.4C166.1,217.6,161.8,225.5,157.4,233.4z M164.4,256c5.4-11.5,11.3-22.6,17.5-33.2
    c6.2-10.6,12.8-20.8,19.7-30.5c12.2-0.9,24.7-1.4,37.4-1.4c12.7,0,25.2,0.5,37.3,1.4c6.8,9.7,13.3,19.8,19.5,30.3
    c6.2,10.6,12.1,21.5,17.5,32.9c-5.4,11.5-11.3,22.6-17.5,33.2c-6.2,10.6-12.7,20.8-19.5,30.5c-12.1,0.9-24.7,1.4-37.4,1.4
    c-12.7,0-25.2-0.5-37.3-1.4c-6.9-9.7-13.5-19.9-19.7-30.5C175.7,278.6,169.8,267.5,164.4,256z M354.6,278.6
    c4-5.6,7.9-11.3,11.7-17.1c5,11.9,9.3,23.7,12.9,35.2c-12.1,2.7-24.7,5-37.6,6.7C345.9,294.5,350.3,286.6,354.6,278.6z
     M354.4,233.4c-4.1-7.9-8.4-15.8-12.9-23.5c12.8,1.3,25.3,3.1,37.3,5.4c-3.5,11.4-7.8,23.2-12.7,35.1
    C362.3,244.7,358.4,239,354.4,233.4z M366.9,205.4c-5.8-1.3-11.8-2.5-17.9-3.5c-6.1-1-12.3-1.9-18.6-2.7
    c6.5-10.2,12.5-20.3,18.1-30.2c5.5-9.8,10.5-19.5,15-28.9C354.4,161.1,362.1,182.9,366.9,205.4z M256,128.3
    c-8.4,9.1-16.6,18.9-24.5,29.5c-7.9,10.5-15.3,21.4-22.2,32.5c-7.4-0.2-14.6-0.3-21.8-0.3c-7.2,0-14.3,0.1-21.3,0.3
    c6.8-10.9,14.1-21.6,21.9-31.9c7.8-10.3,16-20.1,24.4-29.2C226.1,128.5,240.9,128.3,256,128.3z M168.8,140.1
    c4.5,9.4,9.5,19.1,15,28.9c5.5,9.8,11.5,19.9,17.9,30c-6.3,0.8-12.5,1.7-18.6,2.7c-6.1,1-12.1,2.2-17.9,3.5
    C159.9,182.9,163.1,161.1,168.8,140.1z M126.8,243.8c-3.6-1-7.2-2.1-10.6-3.2c-21.2-7.2-38.5-16.6-50.3-27
    c-10.7-9.4-16.1-18.7-16.1-26.2c0-16.1,24-36.6,64.1-50.6c4.6-1.6,9.4-3.1,14.3-4.6c5.5,17.8,12.7,36.6,21.3,55.8
    C140.9,207.1,133.6,225.9,126.8,243.8z M153.5,443.9c-13.9,7.9-25,8.1-31.7,1.9c-13.7-7.8-19.3-37.7-11.6-78
    c0.9-4.8,1.9-9.6,3.1-14.3c18.3,4.2,38.1,7.3,59,9.1c12.1,17.1,24.8,32.8,37.7,46.5c-2.9,2.8-5.8,5.5-8.7,8.1
    C184.9,432.6,167.6,443.3,153.5,443.9z M356.4,366.9c7.9,40.9,2.4,71.9-11.2,79.7c-13.7,7.8-43.2-2.3-74.9-29.2
    c-3.6-3-7.1-6.3-10.7-9.6c12.7-13.8,25.3-29.5,37.2-46.7c21-1.9,40.8-5.1,59-9.5C354.9,357.5,355.7,362.2,356.4,366.9z
     M385.2,243.8c-2.7,0.9-5.5,1.8-8.3,2.6c-5.5-17.7-12.7-36.5-21.3-55.7c8.3-19,15.4-37.7,20.8-55.3c5.1,1.5,10,3,14.7,4.6
    c45.9,15.8,73.9,39.1,73.9,57c0,9.5-7.3,21.4-20.7,31.3C432.2,238.5,410.9,246.2,385.2,243.8z"/>
  <path fill="#61DAFB" d="M256,298.6c23.5,0,42.6-19.1,42.6-42.6s-19.1-42.6-42.6-42.6s-42.6,19.1-42.6,42.6S232.5,298.6,256,298.6z"/>
</svg>
