<?xml version="1.0" encoding="UTF-8"?>
<svg xmlns="http://www.w3.org/2000/svg" viewBox="0 0 512 512">
  <rect width="512" height="512" rx="50" fill="#3178C6"/>
  <path fill="white" d="M317,407v50c8.1,4.2,18,7.3,29,9.4s23,3.1,35,3.1c12,0,23-1.1,34-3.4c11-2.3,20-6.1,28-11.4
    c8-5.3,14-12.2,19-20.7s7-19.1,7-31.8c0-9.1-1-17.1-4-24c-3-6.8-6-12.8-11-18c-5-5.2-10-10-17-14.4c-7-4.4-14-8.7-22-12.8
    c-6-3-11-5.9-16-8.6c-5-2.7-10-5.3-13-8c-3-2.7-6-5.4-8-8.1c-2-2.7-3-5.6-3-8.7c0-3,1-5.7,2-8.1c1-2.4,3-4.5,6-6.2
    c3-1.7,6-3.1,10-4c4-0.9,9-1.4,15-1.4c4,0,8,0.3,13,0.9c5,0.6,10,1.5,15,2.7c5,1.2,10,2.6,14,4.3c4,1.7,8,3.7,12,5.8v-47
    c-8-3-16-5.1-25-6.5c-9-1.3-19-2-31-2c-12,0-23,1.3-34,3.8c-11,2.5-20,6.5-28,11.8c-8,5.3-14,12.1-19,20.4
    c-5,8.3-7,18.3-7,30c0,15,4,27.8,13,38.4c9,10.6,22,19.8,39,27.6c6,2.7,12,5.4,17,8.1c5,2.7,10,5.4,14,8.1c4,2.7,7,5.6,9,8.6
    c2,3,3,6.3,3,9.9c0,3-1,5.6-2,8c-1,2.4-3,4.4-5,6.1c-2,1.7-5,3-9,3.9c-4,0.9-8,1.4-13,1.4c-11,0-22-2-32-6.1
    C335,418.2,325,413.2,317,407z M233,284h64v-41H118v41h64v183h51V284z"/>
</svg>
