<?xml version="1.0" encoding="UTF-8"?>
<svg width="800" height="500" viewBox="0 0 800 500" fill="none" xmlns="http://www.w3.org/2000/svg">
  <!-- Background -->
  <rect width="800" height="500" rx="10" fill="#1E293B"/>
  
  <!-- Journey Path -->
  <path d="M100 400 C150 350, 200 450, 250 350 C300 250, 350 400, 400 300 C450 200, 500 350, 550 250 C600 150, 650 250, 700 200" 
        stroke="#4F46E5" stroke-width="5" stroke-linecap="round" stroke-linejoin="round" fill="none"/>
  
  <!-- Milestones -->
  <circle cx="100" cy="400" r="15" fill="#0EA5E9"/>
  <text x="100" y="440" font-family="Arial" font-size="12" fill="#FFFFFF" text-anchor="middle">Start</text>
  
  <circle cx="250" cy="350" r="15" fill="#8B5CF6"/>
  <text x="250" y="390" font-family="Arial" font-size="12" fill="#FFFFFF" text-anchor="middle">HTML/CSS</text>
  
  <circle cx="400" cy="300" r="15" fill="#10B981"/>
  <text x="400" y="340" font-family="Arial" font-size="12" fill="#FFFFFF" text-anchor="middle">JavaScript</text>
  
  <circle cx="550" cy="250" r="15" fill="#F59E0B"/>
  <text x="550" y="290" font-family="Arial" font-size="12" fill="#FFFFFF" text-anchor="middle">React</text>
  
  <circle cx="700" cy="200" r="15" fill="#EF4444"/>
  <text x="700" y="240" font-family="Arial" font-size="12" fill="#FFFFFF" text-anchor="middle">Full Stack</text>
  
  <!-- Laptop Icon -->
  <rect x="350" y="100" width="100" height="70" rx="5" fill="#334155"/>
  <rect x="360" y="110" width="80" height="50" rx="2" fill="#0F172A"/>
  <rect x="330" y="170" width="140" height="10" rx="5" fill="#334155"/>
  
  <!-- Code Symbols -->
  <text x="380" y="140" font-family="monospace" font-size="20" fill="#4F46E5">&lt;/&gt;</text>
  
  <!-- Mountain Peaks (Challenges) -->
  <path d="M150 350 L200 300 L250 350" stroke="#64748B" stroke-width="3" fill="none"/>
  <path d="M300 300 L350 250 L400 300" stroke="#64748B" stroke-width="3" fill="none"/>
  <path d="M450 250 L500 200 L550 250" stroke="#64748B" stroke-width="3" fill="none"/>
  <path d="M600 200 L650 150 L700 200" stroke="#64748B" stroke-width="3" fill="none"/>
  
  <!-- Stars (Achievements) -->
  <path d="M200 200 L205 210 L215 210 L207 217 L210 227 L200 222 L190 227 L193 217 L185 210 L195 210 Z" fill="#F59E0B"/>
  <path d="M350 150 L355 160 L365 160 L357 167 L360 177 L350 172 L340 177 L343 167 L335 160 L345 160 Z" fill="#F59E0B"/>
  <path d="M500 100 L505 110 L515 110 L507 117 L510 127 L500 122 L490 127 L493 117 L485 110 L495 110 Z" fill="#F59E0B"/>
  <path d="M650 100 L655 110 L665 110 L657 117 L660 127 L650 122 L640 127 L643 117 L635 110 L645 110 Z" fill="#F59E0B"/>
  
  <!-- Decorative Elements -->
  <circle cx="400" cy="250" r="150" fill="#4F46E5" opacity="0.05"/>
  <circle cx="200" cy="350" r="100" fill="#0EA5E9" opacity="0.05"/>
  <circle cx="600" cy="150" r="120" fill="#8B5CF6" opacity="0.05"/>
</svg>
