<?xml version="1.0" encoding="UTF-8"?>
<svg width="800" height="500" viewBox="0 0 800 500" fill="none" xmlns="http://www.w3.org/2000/svg">
  <!-- Background -->
  <rect width="800" height="500" rx="10" fill="#1E293B"/>
  
  <!-- TypeScript Logo -->
  <g transform="translate(400, 120) scale(1.5)">
    <rect width="70" height="70" fill="#3178C6"/>
    <path d="M41.4 56.4v7.8c1.3 0.7 2.8 1.2 4.5 1.5 1.7 0.3 3.5 0.5 5.4 0.5 1.9 0 3.6-0.2 5.2-0.5 1.6-0.3 3-0.9 4.2-1.7 1.2-0.8 2.1-1.8 2.8-3.1 0.7-1.3 1-2.8 1-4.6 0-1.3-0.2-2.5-0.6-3.5 -0.4-1-0.9-1.9-1.6-2.6 -0.7-0.8-1.5-1.4-2.5-2 -1-0.6-2-1.1-3.2-1.7 -0.9-0.4-1.7-0.8-2.4-1.2 -0.7-0.4-1.3-0.8-1.8-1.2 -0.5-0.4-0.8-0.8-1.1-1.2 -0.3-0.4-0.4-0.9-0.4-1.4 0-0.5 0.1-0.9 0.4-1.2 0.3-0.4 0.6-0.7 1.1-0.9 0.5-0.3 1-0.5 1.7-0.6 0.7-0.1 1.4-0.2 2.2-0.2 0.6 0 1.2 0 1.9 0.1 0.7 0.1 1.4 0.2 2.1 0.4 0.7 0.2 1.4 0.4 2.1 0.7 0.7 0.3 1.3 0.6 1.9 0.9v-7.3c-1.2-0.5-2.5-0.8-3.9-1 -1.4-0.2-3-0.3-4.8-0.3 -1.8 0-3.5 0.2-5.1 0.6 -1.6 0.4-3 1-4.2 1.8 -1.2 0.8-2.1 1.9-2.8 3.1 -0.7 1.2-1 2.7-1 4.4 0 2.2 0.6 4 1.9 5.5 1.3 1.5 3.2 2.8 5.8 4 0.9 0.4 1.7 0.8 2.5 1.2 0.8 0.4 1.4 0.8 2 1.2 0.6 0.4 1 0.9 1.3 1.3 0.3 0.5 0.5 1 0.5 1.5 0 0.5-0.1 0.9-0.3 1.3 -0.2 0.4-0.5 0.7-0.9 1 -0.4 0.3-0.9 0.5-1.5 0.6 -0.6 0.1-1.3 0.2-2.1 0.2 -1.6 0-3.2-0.3-4.8-0.9 -1.6-0.6-3.1-1.4-4.5-2.5Z" fill="white"/>
    <path d="M34 41h-9.8v5.6h9.8v7.1H18.4V28.9h25.3v5.6H34V41Z" fill="white"/>
  </g>
  
  <!-- Code Editor Window -->
  <rect x="150" y="200" width="500" height="250" rx="8" fill="#0F172A"/>
  <rect x="150" y="200" width="500" height="30" rx="8" fill="#334155"/>
  
  <!-- Editor Controls -->
  <circle cx="170" cy="215" r="5" fill="#EF4444"/>
  <circle cx="190" cy="215" r="5" fill="#F59E0B"/>
  <circle cx="210" cy="215" r="5" fill="#10B981"/>
  
  <!-- TypeScript Code -->
  <!-- Line 1 -->
  <text x="170" y="260" font-family="monospace" font-size="12" fill="#8B5CF6">interface</text>
  <text x="230" y="260" font-family="monospace" font-size="12" fill="#0EA5E9">User</text>
  <text x="260" y="260" font-family="monospace" font-size="12" fill="#94A3B8">{</text>
  
  <!-- Line 2 -->
  <text x="180" y="280" font-family="monospace" font-size="12" fill="#0EA5E9">id</text>
  <text x="195" y="280" font-family="monospace" font-size="12" fill="#94A3B8">:</text>
  <text x="205" y="280" font-family="monospace" font-size="12" fill="#8B5CF6">number</text>
  <text x="250" y="280" font-family="monospace" font-size="12" fill="#94A3B8">;</text>
  
  <!-- Line 3 -->
  <text x="180" y="300" font-family="monospace" font-size="12" fill="#0EA5E9">name</text>
  <text x="210" y="300" font-family="monospace" font-size="12" fill="#94A3B8">:</text>
  <text x="220" y="300" font-family="monospace" font-size="12" fill="#8B5CF6">string</text>
  <text x="260" y="300" font-family="monospace" font-size="12" fill="#94A3B8">;</text>
  
  <!-- Line 4 -->
  <text x="180" y="320" font-family="monospace" font-size="12" fill="#0EA5E9">email</text>
  <text x="215" y="320" font-family="monospace" font-size="12" fill="#94A3B8">:</text>
  <text x="225" y="320" font-family="monospace" font-size="12" fill="#8B5CF6">string</text>
  <text x="265" y="320" font-family="monospace" font-size="12" fill="#94A3B8">;</text>
  
  <!-- Line 5 -->
  <text x="180" y="340" font-family="monospace" font-size="12" fill="#0EA5E9">isActive</text>
  <text x="230" y="340" font-family="monospace" font-size="12" fill="#94A3B8">:</text>
  <text x="240" y="340" font-family="monospace" font-size="12" fill="#8B5CF6">boolean</text>
  <text x="290" y="340" font-family="monospace" font-size="12" fill="#94A3B8">;</text>
  
  <!-- Line 6 -->
  <text x="170" y="360" font-family="monospace" font-size="12" fill="#94A3B8">}</text>
  
  <!-- Line 7 -->
  <text x="170" y="380" font-family="monospace" font-size="12" fill="#94A3B8"></text>
  
  <!-- Line 8 -->
  <text x="170" y="400" font-family="monospace" font-size="12" fill="#8B5CF6">function</text>
  <text x="225" y="400" font-family="monospace" font-size="12" fill="#0EA5E9">greetUser</text>
  <text x="285" y="400" font-family="monospace" font-size="12" fill="#94A3B8">(</text>
  <text x="290" y="400" font-family="monospace" font-size="12" fill="#0EA5E9">user</text>
  <text x="320" y="400" font-family="monospace" font-size="12" fill="#94A3B8">:</text>
  <text x="330" y="400" font-family="monospace" font-size="12" fill="#0EA5E9">User</text>
  <text x="360" y="400" font-family="monospace" font-size="12" fill="#94A3B8">):</text>
  <text x="375" y="400" font-family="monospace" font-size="12" fill="#8B5CF6">string</text>
  <text x="415" y="400" font-family="monospace" font-size="12" fill="#94A3B8">{</text>
  
  <!-- Line 9 -->
  <text x="180" y="420" font-family="monospace" font-size="12" fill="#8B5CF6">return</text>
  <text x="220" y="420" font-family="monospace" font-size="12" fill="#F59E0B">`Hello, ${</text>
  <text x="280" y="420" font-family="monospace" font-size="12" fill="#0EA5E9">user.name</text>
  <text x="330" y="420" font-family="monospace" font-size="12" fill="#F59E0B">}!`</text>
  <text x="350" y="420" font-family="monospace" font-size="12" fill="#94A3B8">;</text>
  
  <!-- Line 10 -->
  <text x="170" y="440" font-family="monospace" font-size="12" fill="#94A3B8">}</text>
  
  <!-- TypeScript Benefits -->
  <g transform="translate(500, 260)">
    <rect width="120" height="30" rx="5" fill="#334155"/>
    <text x="60" y="20" font-family="Arial" font-size="12" fill="#FFFFFF" text-anchor="middle">Type Safety</text>
  </g>
  
  <g transform="translate(500, 300)">
    <rect width="120" height="30" rx="5" fill="#334155"/>
    <text x="60" y="20" font-family="Arial" font-size="12" fill="#FFFFFF" text-anchor="middle">Better Tooling</text>
  </g>
  
  <g transform="translate(500, 340)">
    <rect width="120" height="30" rx="5" fill="#334155"/>
    <text x="60" y="20" font-family="Arial" font-size="12" fill="#FFFFFF" text-anchor="middle">Self-Documenting</text>
  </g>
  
  <g transform="translate(500, 380)">
    <rect width="120" height="30" rx="5" fill="#334155"/>
    <text x="60" y="20" font-family="Arial" font-size="12" fill="#FFFFFF" text-anchor="middle">Fewer Bugs</text>
  </g>
  
  <!-- Decorative Elements -->
  <circle cx="400" cy="250" r="150" fill="#3178C6" opacity="0.05"/>
  <circle cx="200" cy="350" r="100" fill="#0EA5E9" opacity="0.05"/>
  <circle cx="600" cy="150" r="120" fill="#8B5CF6" opacity="0.05"/>
</svg>
