<?xml version="1.0" encoding="UTF-8"?>
<svg width="800" height="600" viewBox="0 0 800 600" fill="none" xmlns="http://www.w3.org/2000/svg">
  <!-- Background -->
  <rect width="800" height="600" fill="#1E293B"/>
  
  <!-- Browser Window -->
  <rect x="50" y="50" width="700" height="500" rx="8" fill="#0F172A"/>
  <rect x="50" y="50" width="700" height="40" rx="8" fill="#334155"/>
  
  <!-- Browser Controls -->
  <circle cx="80" cy="70" r="8" fill="#EF4444"/>
  <circle cx="110" cy="70" r="8" fill="#F59E0B"/>
  <circle cx="140" cy="70" r="8" fill="#10B981"/>
  
  <!-- URL Bar -->
  <rect x="180" y="60" width="450" height="20" rx="4" fill="#1E293B"/>
  
  <!-- E-commerce Website Content -->
  <!-- Header -->
  <rect x="70" y="110" width="660" height="60" rx="4" fill="#1E293B"/>
  <rect x="90" y="130" width="120" height="20" rx="4" fill="#FFFFFF"/>
  <rect x="500" y="130" width="40" height="20" rx="4" fill="#94A3B8"/>
  <rect x="560" y="130" width="40" height="20" rx="4" fill="#94A3B8"/>
  <rect x="620" y="130" width="90" height="20" rx="4" fill="#4F46E5"/>
  
  <!-- Hero Section -->
  <rect x="70" y="190" width="660" height="150" rx="4" fill="#334155"/>
  <rect x="90" y="220" width="300" height="30" rx="4" fill="#FFFFFF"/>
  <rect x="90" y="260" width="250" height="20" rx="4" fill="#94A3B8"/>
  <rect x="90" y="290" width="150" height="30" rx="4" fill="#4F46E5"/>
  
  <!-- Product Grid -->
  <rect x="70" y="360" width="210" height="170" rx="4" fill="#1E293B"/>
  <rect x="90" y="380" width="170" height="100" rx="4" fill="#334155"/>
  <rect x="90" y="490" width="120" height="20" rx="4" fill="#FFFFFF"/>
  <rect x="90" y="520" width="80" height="20" rx="4" fill="#4F46E5"/>
  
  <rect x="290" y="360" width="210" height="170" rx="4" fill="#1E293B"/>
  <rect x="310" y="380" width="170" height="100" rx="4" fill="#334155"/>
  <rect x="310" y="490" width="120" height="20" rx="4" fill="#FFFFFF"/>
  <rect x="310" y="520" width="80" height="20" rx="4" fill="#4F46E5"/>
  
  <rect x="510" y="360" width="210" height="170" rx="4" fill="#1E293B"/>
  <rect x="530" y="380" width="170" height="100" rx="4" fill="#334155"/>
  <rect x="530" y="490" width="120" height="20" rx="4" fill="#FFFFFF"/>
  <rect x="530" y="520" width="80" height="20" rx="4" fill="#4F46E5"/>
  
  <!-- Shopping Cart Icon -->
  <circle cx="650" cy="130" r="15" fill="#4F46E5" opacity="0.2"/>
  <path d="M640 130H660M645 125L642 140H658L655 125" stroke="#FFFFFF" stroke-width="2" stroke-linecap="round" stroke-linejoin="round"/>
  <circle cx="646" cy="145" r="2" fill="#FFFFFF"/>
  <circle cx="654" cy="145" r="2" fill="#FFFFFF"/>
</svg>
