<?xml version="1.0" encoding="UTF-8"?>
<svg width="800" height="600" viewBox="0 0 800 600" fill="none" xmlns="http://www.w3.org/2000/svg">
  <!-- Background -->
  <rect width="800" height="600" fill="#1E293B"/>
  
  <!-- Browser Window -->
  <rect x="100" y="50" width="600" height="500" rx="8" fill="#0F172A"/>
  <rect x="100" y="50" width="600" height="40" rx="8" fill="#334155"/>
  
  <!-- Browser Controls -->
  <circle cx="130" cy="70" r="8" fill="#EF4444"/>
  <circle cx="160" cy="70" r="8" fill="#F59E0B"/>
  <circle cx="190" cy="70" r="8" fill="#10B981"/>
  
  <!-- URL Bar -->
  <rect x="230" y="60" width="400" height="20" rx="4" fill="#1E293B"/>
  
  <!-- Portfolio Website Content -->
  <!-- Header -->
  <rect x="120" y="110" width="560" height="60" rx="4" fill="#1E293B"/>
  <rect x="140" y="130" width="120" height="20" rx="4" fill="#FFFFFF"/>
  <rect x="500" y="130" width="40" height="20" rx="4" fill="#94A3B8"/>
  <rect x="550" y="130" width="40" height="20" rx="4" fill="#94A3B8"/>
  <rect x="600" y="130" width="60" height="20" rx="4" fill="#4F46E5"/>
  
  <!-- Hero Section -->
  <rect x="120" y="190" width="560" height="150" rx="4" fill="#334155"/>
  <rect x="140" y="220" width="300" height="30" rx="4" fill="#FFFFFF"/>
  <rect x="140" y="260" width="250" height="20" rx="4" fill="#94A3B8"/>
  <rect x="140" y="290" width="150" height="30" rx="4" fill="#4F46E5"/>
  <circle cx="550" cy="265" r="50" fill="#4F46E5" opacity="0.5"/>
  
  <!-- Projects Section -->
  <rect x="120" y="360" width="560" height="40" rx="4" fill="#1E293B"/>
  <rect x="140" y="370" width="150" height="20" rx="4" fill="#FFFFFF"/>
  
  <!-- Project Cards -->
  <rect x="120" y="420" width="175" height="110" rx="4" fill="#1E293B"/>
  <rect x="130" y="430" width="155" height="60" rx="4" fill="#334155"/>
  <rect x="130" y="500" width="100" height="15" rx="4" fill="#FFFFFF"/>
  
  <rect x="312.5" y="420" width="175" height="110" rx="4" fill="#1E293B"/>
  <rect x="322.5" y="430" width="155" height="60" rx="4" fill="#334155"/>
  <rect x="322.5" y="500" width="100" height="15" rx="4" fill="#FFFFFF"/>
  
  <rect x="505" y="420" width="175" height="110" rx="4" fill="#1E293B"/>
  <rect x="515" y="430" width="155" height="60" rx="4" fill="#334155"/>
  <rect x="515" y="500" width="100" height="15" rx="4" fill="#FFFFFF"/>
  
  <!-- Decorative Elements -->
  <circle cx="50" cy="150" r="30" fill="#4F46E5" opacity="0.2"/>
  <circle cx="750" cy="200" r="40" fill="#0EA5E9" opacity="0.2"/>
  <circle cx="50" cy="450" r="35" fill="#8B5CF6" opacity="0.2"/>
  <circle cx="750" cy="400" r="25" fill="#F59E0B" opacity="0.2"/>
  
  <!-- Animated Elements Representation -->
  <g opacity="0.8">
    <rect x="140" y="220" width="20" height="5" rx="2.5" fill="#4F46E5">
      <animate attributeName="width" values="20;40;20" dur="2s" repeatCount="indefinite"/>
    </rect>
    <rect x="140" y="230" width="30" height="5" rx="2.5" fill="#4F46E5">
      <animate attributeName="width" values="30;60;30" dur="2s" repeatCount="indefinite" begin="0.3s"/>
    </rect>
    <rect x="140" y="240" width="25" height="5" rx="2.5" fill="#4F46E5">
      <animate attributeName="width" values="25;50;25" dur="2s" repeatCount="indefinite" begin="0.6s"/>
    </rect>
  </g>
  
  <!-- Dark/Light Mode Toggle Representation -->
  <circle cx="620" cy="130" r="10" fill="#1E293B" stroke="#FFFFFF" stroke-width="2"/>
  <circle cx="615" cy="130" r="5" fill="#FFFFFF"/>
</svg>
