<?xml version="1.0" encoding="UTF-8"?>
<svg width="800" height="600" viewBox="0 0 800 600" fill="none" xmlns="http://www.w3.org/2000/svg">
  <!-- Background -->
  <rect width="800" height="600" fill="#1E293B"/>
  
  <!-- Mobile Phone Frame -->
  <rect x="250" y="50" width="300" height="500" rx="30" fill="#0F172A"/>
  <rect x="270" y="70" width="260" height="460" rx="20" fill="#334155"/>
  
  <!-- Status Bar -->
  <rect x="270" y="70" width="260" height="30" rx="10" fill="#0F172A"/>
  <circle cx="290" cy="85" r="5" fill="#FFFFFF"/>
  <rect x="305" y="82" width="30" height="6" rx="3" fill="#FFFFFF"/>
  <rect x="480" y="82" width="20" height="6" rx="3" fill="#FFFFFF"/>
  <rect x="505" y="82" width="15" height="6" rx="3" fill="#FFFFFF"/>
  
  <!-- App Header -->
  <rect x="270" y="100" width="260" height="50" rx="10" fill="#0F172A"/>
  <rect x="290" y="115" width="100" height="20" rx="4" fill="#FFFFFF"/>
  <circle cx="510" cy="125" r="10" fill="#4F46E5"/>
  <path d="M510 120V130M505 125H515" stroke="white" stroke-width="2" stroke-linecap="round"/>
  
  <!-- Post 1 -->
  <rect x="270" y="160" width="260" height="150" rx="10" fill="#0F172A"/>
  
  <!-- User Info -->
  <circle cx="300" cy="185" r="15" fill="#94A3B8"/>
  <rect x="325" y="175" width="80" height="10" rx="2" fill="#FFFFFF"/>
  <rect x="325" y="190" width="50" height="8" rx="2" fill="#94A3B8"/>
  <circle cx="510" cy="185" r="3" fill="#FFFFFF"/>
  <circle cx="500" cy="185" r="3" fill="#FFFFFF"/>
  <circle cx="490" cy="185" r="3" fill="#FFFFFF"/>
  
  <!-- Post Content -->
  <rect x="290" y="215" width="220" height="60" rx="4" fill="#1E293B"/>
  
  <!-- Post Actions -->
  <circle cx="300" cy="290" r="10" fill="#EF4444"/>
  <path d="M300 285L295 290L300 295L305 290L300 285Z" fill="#FFFFFF"/>
  
  <circle cx="330" cy="290" r="10" fill="#1E293B"/>
  <path d="M330 285V295M325 290H335" stroke="#FFFFFF" stroke-width="2" stroke-linecap="round"/>
  
  <circle cx="360" cy="290" r="10" fill="#1E293B"/>
  <path d="M355 290H365M360 285V295" stroke="#FFFFFF" stroke-width="2" stroke-linecap="round"/>
  
  <rect x="480" y="285" width="40" height="10" rx="2" fill="#94A3B8"/>
  
  <!-- Post 2 -->
  <rect x="270" y="320" width="260" height="150" rx="10" fill="#0F172A"/>
  
  <!-- User Info -->
  <circle cx="300" cy="345" r="15" fill="#94A3B8"/>
  <rect x="325" y="335" width="80" height="10" rx="2" fill="#FFFFFF"/>
  <rect x="325" y="350" width="50" height="8" rx="2" fill="#94A3B8"/>
  <circle cx="510" cy="345" r="3" fill="#FFFFFF"/>
  <circle cx="500" cy="345" r="3" fill="#FFFFFF"/>
  <circle cx="490" cy="345" r="3" fill="#FFFFFF"/>
  
  <!-- Post Content -->
  <rect x="290" y="375" width="220" height="60" rx="4" fill="#1E293B"/>
  
  <!-- Post Actions -->
  <circle cx="300" cy="450" r="10" fill="#EF4444"/>
  <path d="M300 445L295 450L300 455L305 450L300 445Z" fill="#FFFFFF"/>
  
  <circle cx="330" cy="450" r="10" fill="#1E293B"/>
  <path d="M330 445V455M325 450H335" stroke="#FFFFFF" stroke-width="2" stroke-linecap="round"/>
  
  <circle cx="360" cy="450" r="10" fill="#1E293B"/>
  <path d="M355 450H365M360 445V455" stroke="#FFFFFF" stroke-width="2" stroke-linecap="round"/>
  
  <rect x="480" y="445" width="40" height="10" rx="2" fill="#94A3B8"/>
  
  <!-- Navigation Bar -->
  <rect x="270" y="480" width="260" height="50" rx="10" fill="#0F172A"/>
  
  <!-- Nav Icons -->
  <rect x="290" y="495" width="20" height="20" rx="4" fill="#4F46E5"/>
  <rect x="350" y="495" width="20" height="20" rx="4" fill="#94A3B8"/>
  <circle cx="400" cy="505" r="10" fill="#94A3B8"/>
  <rect x="440" y="495" width="20" height="20" rx="4" fill="#94A3B8"/>
  <circle cx="490" cy="505" r="10" fill="#94A3B8"/>
  
  <!-- Decorative Elements -->
  <circle cx="150" cy="150" r="50" fill="#4F46E5" opacity="0.1"/>
  <circle cx="650" cy="200" r="70" fill="#0EA5E9" opacity="0.1"/>
  <circle cx="150" cy="450" r="60" fill="#8B5CF6" opacity="0.1"/>
  <circle cx="650" cy="400" r="40" fill="#F59E0B" opacity="0.1"/>
  
  <!-- Mobile App Icons -->
  <rect x="100" y="250" width="60" height="60" rx="15" fill="#4F46E5" opacity="0.8"/>
  <path d="M130 270V290M120 280H140" stroke="white" stroke-width="3" stroke-linecap="round"/>
  
  <rect x="100" y="330" width="60" height="60" rx="15" fill="#0EA5E9" opacity="0.8"/>
  <circle cx="130" cy="360" r="15" stroke="white" stroke-width="3" fill="none"/>
  
  <rect x="640" y="250" width="60" height="60" rx="15" fill="#8B5CF6" opacity="0.8"/>
  <path d="M660 260L680 280M660 280L680 260" stroke="white" stroke-width="3" stroke-linecap="round"/>
  
  <rect x="640" y="330" width="60" height="60" rx="15" fill="#F59E0B" opacity="0.8"/>
  <path d="M670 350C670 350 660 360 670 370C680 360 670 350 670 350Z" fill="white" stroke="white" stroke-width="2"/>
</svg>
