<?xml version="1.0" encoding="UTF-8"?>
<svg width="800" height="600" viewBox="0 0 800 600" fill="none" xmlns="http://www.w3.org/2000/svg">
  <!-- Background -->
  <rect width="800" height="600" fill="#1E293B"/>
  
  <!-- App Window -->
  <rect x="50" y="50" width="700" height="500" rx="8" fill="#0F172A"/>
  <rect x="50" y="50" width="700" height="40" rx="8" fill="#334155"/>
  
  <!-- Window Controls -->
  <circle cx="80" cy="70" r="8" fill="#EF4444"/>
  <circle cx="110" cy="70" r="8" fill="#F59E0B"/>
  <circle cx="140" cy="70" r="8" fill="#10B981"/>
  
  <!-- App Title -->
  <rect x="350" y="60" width="100" height="20" rx="4" fill="#FFFFFF"/>
  
  <!-- Sidebar -->
  <rect x="50" y="90" width="200" height="460" fill="#1E293B"/>
  
  <!-- Sidebar Menu Items -->
  <rect x="70" y="120" width="160" height="40" rx="4" fill="#4F46E5"/>
  <rect x="90" y="130" width="100" height="20" rx="4" fill="#FFFFFF"/>
  <circle cx="80" cy="140" r="6" fill="#FFFFFF"/>
  
  <rect x="70" y="170" width="160" height="40" rx="4" fill="#1E293B"/>
  <rect x="90" y="180" width="100" height="20" rx="4" fill="#94A3B8"/>
  <circle cx="80" cy="190" r="6" fill="#94A3B8"/>
  
  <rect x="70" y="220" width="160" height="40" rx="4" fill="#1E293B"/>
  <rect x="90" y="230" width="100" height="20" rx="4" fill="#94A3B8"/>
  <circle cx="80" cy="240" r="6" fill="#94A3B8"/>
  
  <rect x="70" y="270" width="160" height="40" rx="4" fill="#1E293B"/>
  <rect x="90" y="280" width="100" height="20" rx="4" fill="#94A3B8"/>
  <circle cx="80" cy="290" r="6" fill="#94A3B8"/>
  
  <!-- Main Content -->
  <rect x="270" y="110" width="460" height="50" rx="4" fill="#1E293B"/>
  <rect x="290" y="125" width="200" height="20" rx="4" fill="#FFFFFF"/>
  <rect x="600" y="125" width="100" height="20" rx="4" fill="#4F46E5"/>
  
  <!-- Task Cards -->
  <rect x="270" y="180" width="220" height="160" rx="8" fill="#1E293B"/>
  <rect x="290" y="200" width="180" height="20" rx="4" fill="#FFFFFF"/>
  <rect x="290" y="230" width="160" height="40" rx="4" fill="#334155"/>
  <rect x="290" y="280" width="80" height="20" rx="4" fill="#94A3B8"/>
  <rect x="290" y="310" width="60" height="20" rx="10" fill="#4F46E5"/>
  
  <rect x="510" y="180" width="220" height="160" rx="8" fill="#1E293B"/>
  <rect x="530" y="200" width="180" height="20" rx="4" fill="#FFFFFF"/>
  <rect x="530" y="230" width="160" height="40" rx="4" fill="#334155"/>
  <rect x="530" y="280" width="80" height="20" rx="4" fill="#94A3B8"/>
  <rect x="530" y="310" width="60" height="20" rx="10" fill="#F59E0B"/>
  
  <rect x="270" y="360" width="220" height="160" rx="8" fill="#1E293B"/>
  <rect x="290" y="380" width="180" height="20" rx="4" fill="#FFFFFF"/>
  <rect x="290" y="410" width="160" height="40" rx="4" fill="#334155"/>
  <rect x="290" y="460" width="80" height="20" rx="4" fill="#94A3B8"/>
  <rect x="290" y="490" width="60" height="20" rx="10" fill="#10B981"/>
  
  <rect x="510" y="360" width="220" height="160" rx="8" fill="#1E293B"/>
  <rect x="530" y="380" width="180" height="20" rx="4" fill="#FFFFFF"/>
  <rect x="530" y="410" width="160" height="40" rx="4" fill="#334155"/>
  <rect x="530" y="460" width="80" height="20" rx="4" fill="#94A3B8"/>
  <rect x="530" y="490" width="60" height="20" rx="10" fill="#EF4444"/>
  
  <!-- Drag Handle Icons -->
  <circle cx="280" cy="190" r="3" fill="#94A3B8"/>
  <circle cx="280" cy="200" r="3" fill="#94A3B8"/>
  <circle cx="280" cy="210" r="3" fill="#94A3B8"/>
  
  <circle cx="520" cy="190" r="3" fill="#94A3B8"/>
  <circle cx="520" cy="200" r="3" fill="#94A3B8"/>
  <circle cx="520" cy="210" r="3" fill="#94A3B8"/>
  
  <circle cx="280" cy="370" r="3" fill="#94A3B8"/>
  <circle cx="280" cy="380" r="3" fill="#94A3B8"/>
  <circle cx="280" cy="390" r="3" fill="#94A3B8"/>
  
  <circle cx="520" cy="370" r="3" fill="#94A3B8"/>
  <circle cx="520" cy="380" r="3" fill="#94A3B8"/>
  <circle cx="520" cy="390" r="3" fill="#94A3B8"/>
</svg>
